<svg width="116" height="27" viewBox="0 0 116 27" fill="none" xmlns="http://www.w3.org/2000/svg">
<path d="M0.509766 26H7.29492L12.9375 6.1543H14.9941V0.634766H9.05273L0.509766 26ZM5.50195 20.4453H20.5137L19.0723 15.7871H6.94336L5.50195 20.4453ZM18.7207 26H25.5059L16.9629 0.634766H13.0605V6.1543L18.7207 26ZM39.7941 26.457C42.0323 26.457 43.9484 26.123 45.5421 25.4551C47.1359 24.7754 48.3546 23.8145 49.1984 22.5723C50.0421 21.3301 50.464 19.8652 50.464 18.1777V18.1602C50.464 16.8008 50.1827 15.6465 49.6202 14.6973C49.0577 13.7363 48.1964 12.9453 47.0363 12.3242C45.8761 11.7031 44.3937 11.2227 42.589 10.8828L39.9874 10.3906C38.628 10.1328 37.6378 9.80469 37.0167 9.40625C36.3956 9.00781 36.0851 8.46875 36.0851 7.78906V7.77148C36.0851 7.29102 36.2257 6.86328 36.507 6.48828C36.7999 6.10156 37.2218 5.79688 37.7726 5.57422C38.3234 5.35156 38.9913 5.24023 39.7765 5.24023C40.5499 5.24023 41.2355 5.35156 41.8331 5.57422C42.4308 5.79688 42.9113 6.10742 43.2745 6.50586C43.6378 6.9043 43.8546 7.38477 43.9249 7.94727L43.9425 8.14062H49.9366L49.9191 7.77148C49.8488 6.23633 49.4034 4.90039 48.5831 3.76367C47.7745 2.62695 46.6261 1.74805 45.1378 1.12695C43.6495 0.494141 41.8448 0.177734 39.7238 0.177734C37.7902 0.177734 36.0616 0.511719 34.5382 1.17969C33.0265 1.83594 31.837 2.76758 30.9698 3.97461C30.1027 5.16992 29.6691 6.58203 29.6691 8.21094V8.22852C29.6691 10.1738 30.3195 11.7617 31.6202 12.9922C32.9327 14.2109 34.8429 15.0547 37.3507 15.5234L39.9523 16.0332C41.4405 16.3145 42.4952 16.6543 43.1163 17.0527C43.7374 17.4395 44.048 17.9902 44.048 18.7051V18.7227C44.048 19.25 43.878 19.7129 43.5382 20.1113C43.1984 20.5098 42.7179 20.8262 42.0968 21.0605C41.4874 21.2832 40.755 21.3945 39.8995 21.3945C39.0792 21.3945 38.3351 21.2832 37.6671 21.0605C36.9991 20.8262 36.4484 20.5098 36.0148 20.1113C35.5929 19.7012 35.3234 19.2207 35.2062 18.6699L35.171 18.4941H29.1769L29.1945 18.8105C29.2999 20.4277 29.7863 21.8047 30.6534 22.9414C31.5323 24.0781 32.7452 24.9512 34.2921 25.5605C35.8507 26.1582 37.6847 26.457 39.7941 26.457ZM56.3323 26H62.7834V0.634766H56.3323V26ZM69.513 26H79.8314C82.3861 26 84.5658 25.4961 86.3705 24.4883C88.1869 23.4688 89.5755 22.0039 90.5365 20.0938C91.4974 18.1719 91.9779 15.8633 91.9779 13.168V13.1328C91.9779 10.4375 91.4974 8.16406 90.5365 6.3125C89.5755 4.44922 88.1869 3.03711 86.3705 2.07617C84.5541 1.11523 82.3744 0.634766 79.8314 0.634766H69.513V26ZM75.9642 20.7969V5.83789H78.9701C80.3177 5.83789 81.472 6.11914 82.433 6.68164C83.4056 7.23242 84.1439 8.05273 84.6478 9.14258C85.1517 10.2324 85.4037 11.5684 85.4037 13.1504V13.1855C85.4037 14.873 85.1576 16.2793 84.6654 17.4043C84.1849 18.5293 83.4642 19.3789 82.5033 19.9531C81.5423 20.5156 80.3646 20.7969 78.9701 20.7969H75.9642ZM98.022 26H115.407V20.8145H104.473V15.6816H114.756V10.8301H104.473V5.82031H115.407V0.634766H98.022V26Z" fill="#EEEEEE"/>
</svg>
