<svg width="188" height="176" viewBox="0 0 188 176" fill="none" xmlns="http://www.w3.org/2000/svg">
<rect x="5" y="29" width="145" height="142" rx="7" fill="url(#paint0_linear_21_20)" stroke="black" stroke-width="10"/>
<g filter="url(#filter0_ddd_21_20)">
<path d="M34 12C34 8.13401 37.134 5 41 5H172C175.866 5 179 8.13401 179 12V140C179 143.866 175.866 147 172 147H41C37.134 147 34 143.866 34 140V12Z" fill="white"/>
<path d="M34 12C34 8.13401 37.134 5 41 5H172C175.866 5 179 8.13401 179 12V140C179 143.866 175.866 147 172 147H41C37.134 147 34 143.866 34 140V12Z" stroke="black" stroke-width="10"/>
</g>
<path d="M113.578 52.8281H113.859L117.328 81.1406H98.1562L113.578 52.8281ZM120.328 108H132.281L122.953 40.3594H109.219L70.6406 108H83.6719L93.2344 90.7031H118.266L120.328 108Z" fill="black"/>
<defs>
<filter id="filter0_ddd_21_20" x="25" y="0" width="163" height="160" filterUnits="userSpaceOnUse" color-interpolation-filters="sRGB">
<feFlood flood-opacity="0" result="BackgroundImageFix"/>
<feColorMatrix in="SourceAlpha" type="matrix" values="0 0 0 0 0 0 0 0 0 0 0 0 0 0 0 0 0 0 127 0" result="hardAlpha"/>
<feOffset dy="4"/>
<feGaussianBlur stdDeviation="2"/>
<feComposite in2="hardAlpha" operator="out"/>
<feColorMatrix type="matrix" values="0 0 0 0 0 0 0 0 0 0 0 0 0 0 0 0 0 0 0.25 0"/>
<feBlend mode="normal" in2="BackgroundImageFix" result="effect1_dropShadow_21_20"/>
<feColorMatrix in="SourceAlpha" type="matrix" values="0 0 0 0 0 0 0 0 0 0 0 0 0 0 0 0 0 0 127 0" result="hardAlpha"/>
<feOffset dy="4"/>
<feGaussianBlur stdDeviation="2"/>
<feComposite in2="hardAlpha" operator="out"/>
<feColorMatrix type="matrix" values="0 0 0 0 0 0 0 0 0 0 0 0 0 0 0 0 0 0 0.25 0"/>
<feBlend mode="normal" in2="effect1_dropShadow_21_20" result="effect2_dropShadow_21_20"/>
<feColorMatrix in="SourceAlpha" type="matrix" values="0 0 0 0 0 0 0 0 0 0 0 0 0 0 0 0 0 0 127 0" result="hardAlpha"/>
<feOffset dy="4"/>
<feGaussianBlur stdDeviation="2"/>
<feComposite in2="hardAlpha" operator="out"/>
<feColorMatrix type="matrix" values="0 0 0 0 0 0 0 0 0 0 0 0 0 0 0 0 0 0 0.25 0"/>
<feBlend mode="normal" in2="effect2_dropShadow_21_20" result="effect3_dropShadow_21_20"/>
<feBlend mode="normal" in="SourceGraphic" in2="effect3_dropShadow_21_20" result="shape"/>
</filter>
<linearGradient id="paint0_linear_21_20" x1="77.5" y1="29" x2="77.5" y2="171" gradientUnits="userSpaceOnUse">
<stop offset="0.317708" stop-color="#FCB48C" stop-opacity="0.78"/>
<stop offset="1" stop-color="#DF6CCD"/>
</linearGradient>
</defs>
</svg>
